<?xml version="1.0" encoding="UTF-8"?>
<svg version="1.1" xmlns="http://www.w3.org/2000/svg" width="579" height="579">
<path d="M0 0 C191.07 0 382.14 0 579 0 C579 191.07 579 382.14 579 579 C387.93 579 196.86 579 0 579 C0 387.93 0 196.86 0 0 Z " fill="#161C24" transform="translate(0,0)"/>
<path d="M0 0 C30.03032247 -0.63361966 30.03032247 -0.63361966 41 3 C42.83498047 3.60328125 42.83498047 3.60328125 44.70703125 4.21875 C68.20416372 12.52431085 85.7276543 31.11166698 96.69140625 53.02734375 C101.48126563 63.05847356 105.17141497 73.57602416 109 84 C109.47190917 85.27587215 109.94424799 86.55158545 110.41699219 87.82714844 C114.38464692 98.53438681 118.33851137 109.24664888 122.11787415 120.02206421 C125.80735356 130.54103799 129.66695151 140.99331038 133.5625 151.4375 C133.909711 152.36964325 134.256922 153.3017865 134.61465454 154.26217651 C140.78204852 170.81566808 147.05401157 187.32733746 153.39257812 203.81591797 C155.96827207 210.51759474 158.53295984 217.22348642 161.0975647 223.92941284 C161.90193274 226.03202735 162.70711713 228.1343276 163.51245117 230.23657227 C166.10889459 237.01838246 168.69086659 243.80557868 171.25 250.6015625 C171.49552109 251.25109894 171.74104218 251.90063538 171.9940033 252.56985474 C173.44553 256.43508596 174.7934908 260.3212635 176.0625 264.25 C177.64375565 269.09097528 179.53078538 273.73133664 181.52929688 278.4128418 C183.19750058 282.48171913 184.72594724 286.58861314 186.234375 290.71875 C186.53827652 291.54713882 186.84217804 292.37552765 187.1552887 293.22901917 C188.1050064 295.81880657 189.05271659 298.40932131 190 301 C191.15470271 304.15503769 192.30971056 307.30996364 193.46484375 310.46484375 C193.74834183 311.2391423 194.0318399 312.01344086 194.32392883 312.811203 C207.915732 358.18826655 207.915732 358.18826655 239.57421875 390.2421875 C247.83111868 393.70679788 255.31723341 395.20593152 264.265625 395.4609375 C267.85837985 396.16922346 268.82019936 397.05349707 271 400 C271.59483899 402.93782376 271.56065958 405.8270356 271.53125 408.81640625 C271.5350769 409.66927719 271.53890381 410.52214813 271.54284668 411.40086365 C271.54556431 413.20044132 271.53821345 415.00005858 271.52148438 416.79956055 C271.50004495 419.5567195 271.52130324 422.31128066 271.546875 425.06835938 C271.54423221 426.81771409 271.53910825 428.56706719 271.53125 430.31640625 C271.54339539 431.55397423 271.54339539 431.55397423 271.55578613 432.81654358 C271.4627257 438.48248938 271.4627257 438.48248938 269.19775391 441.015625 C265.82099971 442.52807478 262.50651315 442.48745896 258.875 442.4375 C258.0802124 442.42775146 257.2854248 442.41800293 256.46655273 442.40795898 C230.65926916 441.65796897 206.63395704 429.08625459 189.01171875 410.45703125 C184.794428 405.3062043 181.3277644 399.74882434 178 394 C177.42765625 393.01257813 176.8553125 392.02515625 176.265625 391.0078125 C167.70231813 374.98219536 162.13453125 357.11663257 156.09399414 340.02880859 C154.83530162 336.54401963 153.46502901 333.11547492 152.0703125 329.68359375 C150.55064023 325.87332058 149.12520051 322.02908152 147.69018555 318.1862793 C141.30055972 301.09023258 134.80776721 284.03259489 128.23565674 267.00588989 C127.70681912 265.63542925 127.17861281 264.26472482 126.65106201 262.89376831 C125.91394699 260.9791644 125.17417234 259.06561016 124.43359375 257.15234375 C124.01134521 256.05913818 123.58909668 254.96593262 123.15405273 253.83959961 C122.19886479 251.48931591 121.17804598 249.24449474 120 247 C119.608125 248.19625 119.21625 249.3925 118.8125 250.625 C116.03345794 258.94931953 113.01907856 267.19172951 110.02734375 275.44140625 C105.46235873 288.04833379 101.01870192 300.69048568 96.67456055 313.37524414 C93.76021116 321.86189792 90.72672127 330.29788979 87.62353516 338.71704102 C85.87632596 343.48743521 84.25751 348.25456788 82.8125 353.125 C77.57746407 370.59808046 77.57746407 370.59808046 71 375 C67.39905132 375.60015811 65.69026876 375.40365954 62.53515625 373.55859375 C59.00893754 369.99977518 57.93383488 366.27287663 56.4375 361.5625 C56.14012939 360.66885742 55.84275879 359.77521484 55.53637695 358.85449219 C54.67277358 356.24179187 53.83272825 353.62268074 53 351 C52.77892578 350.31470215 52.55785156 349.6294043 52.33007812 348.92333984 C50.55738969 343.42074057 48.90466491 337.90377734 47.55859375 332.28125 C45.54747118 324.06799419 43.33247112 315.89199382 40.8515625 307.80859375 C40.14294251 305.47144801 39.45360837 303.13066204 38.7734375 300.78515625 C38.55357178 300.02895996 38.33370605 299.27276367 38.10717773 298.49365234 C37.66995519 296.98800009 37.2344911 295.48183577 36.80102539 293.97509766 C35.97007706 291.12247077 35.13832529 288.3405778 34.01953125 285.5859375 C32.45832343 281.62609237 31.39334699 277.5344622 30.25 273.4375 C28.19762255 266.17148819 26.10966663 258.91866735 23.9375 251.6875 C23.56177856 250.43670654 23.56177856 250.43670654 23.1784668 249.16064453 C21.68057421 244.19762383 20.13390939 239.25268246 18.5625 234.3125 C16.42529412 227.58927843 14.55340603 220.80283655 12.6875 214 C10.05417961 204.41802268 7.05967606 195.01384411 3.8449707 185.61279297 C1.77475216 179.49956533 -0.04880888 173.38319668 -1.625 167.125 C-3.72658676 158.78136091 -6.35820954 150.70078161 -9.13476562 142.56103516 C-13.3416579 130.10891891 -17.43843063 117.63047204 -20.625 104.875 C-25.71818603 84.67458171 -33.68823358 66.21078927 -52 55 C-59.65288724 50.79032243 -67.521488 50.6355726 -76.0625 50.5625 C-77.06756592 50.5521875 -78.07263184 50.541875 -79.1081543 50.53125 C-89.78274061 50.65678209 -98.90328098 53.5480407 -108.4375 58.1875 C-109.25951904 58.58404785 -110.08153809 58.9805957 -110.9284668 59.38916016 C-117.6983286 62.72322234 -123.93460642 66.49853464 -130 71 C-131.05832031 71.763125 -132.11664063 72.52625 -133.20703125 73.3125 C-154.33598409 88.94230375 -171.28307717 109.10491247 -184 132 C-184.38140137 132.67530762 -184.76280273 133.35061523 -185.15576172 134.04638672 C-190.78143273 144.0519616 -195.40040818 154.10041631 -199 165 C-199.25910156 165.77746582 -199.51820313 166.55493164 -199.78515625 167.35595703 C-203.63968765 179.08481193 -206.47348836 190.74309187 -208 203 C-208.14139404 204.11955078 -208.14139404 204.11955078 -208.28564453 205.26171875 C-210.50420933 224.78826402 -209.52148851 244.70439983 -206 264 C-205.77183594 265.25296875 -205.54367188 266.5059375 -205.30859375 267.796875 C-203.93093771 274.63004895 -202.17760098 281.37653961 -200.4375 288.125 C-200.22754395 288.94379639 -200.01758789 289.76259277 -199.80126953 290.60620117 C-199.49552002 291.76406128 -199.49552002 291.76406128 -199.18359375 292.9453125 C-199.00368896 293.63125488 -198.82378418 294.31719727 -198.63842773 295.02392578 C-198.03613879 297.05933766 -198.03613879 297.05933766 -196.95727539 299.07763672 C-195.50095689 302.00215901 -195.49239511 303.76401886 -196 307 C-199.69109013 312.71043855 -204.86270878 316.25545552 -210.5625 319.75 C-211.30435547 320.21792969 -212.04621094 320.68585938 -212.81054688 321.16796875 C-214.23756424 322.06509632 -215.67043375 322.95300398 -217.10986328 323.83007812 C-218.67703798 324.80009894 -220.2023749 325.83733734 -221.71484375 326.890625 C-224 328 -224 328 -226.59765625 328.0625 C-230.12034603 326.50449736 -230.80400112 324.44719187 -232.4375 321 C-232.87799683 320.0709082 -232.87799683 320.0709082 -233.32739258 319.12304688 C-236.78590222 311.62324777 -239.46292968 303.85019648 -242 296 C-242.36996094 294.88367188 -242.73992187 293.76734375 -243.12109375 292.6171875 C-248.31592697 275.84009967 -251.14523407 257.68882608 -251.16796875 240.12890625 C-251.17129715 239.20770493 -251.17462555 238.2865036 -251.17805481 237.33738708 C-251.18308939 235.39525852 -251.18546422 233.45312141 -251.18530273 231.51098633 C-251.18747088 228.60157222 -251.20561339 225.69254947 -251.22460938 222.78320312 C-251.33654296 185.88086056 -242.33085216 150.62536581 -225 118 C-224.65227539 117.34161133 -224.30455078 116.68322266 -223.94628906 116.00488281 C-214.10541591 97.60004981 -201.74040528 80.86390542 -187.48046875 65.66796875 C-185.43719384 63.47024156 -183.48851198 61.23658936 -181.5625 58.9375 C-158.43264145 32.48782646 -119.61247611 7.4629495 -84.05175781 4.77734375 C-64.5211278 4.05971528 -47.40123586 5.63529868 -30 15 C-28.97261719 15.53625 -27.94523438 16.0725 -26.88671875 16.625 C-19.68200913 20.57980884 -13.88858567 25.30201591 -8 31 C-7.33613281 31.5671875 -6.67226563 32.134375 -5.98828125 32.71875 C10.56930658 47.49631318 16.88804886 70.99153903 23.19482422 91.39941406 C23.91475407 93.72466959 24.64381185 96.04669083 25.37890625 98.3671875 C27.20430805 104.13883366 28.98634753 109.91931577 30.66748047 115.73510742 C33.11773028 124.21034285 35.78256583 132.60661687 38.5 141 C41.55556103 150.4459281 44.49745232 159.90460967 47.25439453 169.44091797 C48.95589728 175.2808498 50.69534036 181.10959194 52.4375 186.9375 C52.63405182 187.59512329 52.83060364 188.25274658 53.03311157 188.93029785 C55.51871077 197.23157249 58.09884457 205.48875935 60.89111328 213.69213867 C62.80730222 219.34577132 64.58501612 225.03597495 66.3125 230.75 C66.56733154 231.5848291 66.82216309 232.4196582 67.0847168 233.27978516 C68.34925847 237.50412179 69.39929956 241.61842036 70 246 C70.66 246 71.32 246 72 246 C72.26119629 244.70868164 72.52239258 243.41736328 72.79150391 242.08691406 C73.90526444 237.08822314 75.53161314 232.39507017 77.3359375 227.609375 C77.65656158 226.74290344 77.97718567 225.87643188 78.30752563 224.98370361 C79.32452385 222.23705798 80.34909436 219.49332974 81.375 216.75 C82.72060443 213.14226649 84.06206048 209.53303689 85.3984375 205.921875 C85.71802429 205.05929077 86.03761108 204.19670654 86.36688232 203.3079834 C88.56195879 197.33065448 90.52924552 191.33135652 92.29541016 185.21191406 C93 183 93 183 94 182 C94.40767202 176.54825047 93.33586367 172.30313809 91.3125 167.3125 C91.03776855 166.60754395 90.76303711 165.90258789 90.47998047 165.17626953 C88.92556632 161.21507864 87.2902357 157.29086142 85.625 153.375 C80.39687338 141.02376235 76.01685599 128.26549271 71.859375 115.51953125 C70.69883279 112.11703248 69.35425117 108.80253192 67.9921875 105.4765625 C66.97613736 102.94043734 66.04338602 100.38549886 65.125 97.8125 C59.00909504 80.94021743 52.73831211 63.72436244 39.0625 51.4375 C35.29929504 47.81153284 33.31048949 43.97560698 31.125 39.3125 C24.47425388 25.21625423 14.66454683 14.17899991 2.14453125 4.87890625 C1.08298828 3.94884766 1.08298828 3.94884766 0 3 C0 2.01 0 1.02 0 0 Z " fill="#FCFCFD" transform="translate(288,57)"/>
<path d="M0 0 C5.03443368 3.95562646 6.9347264 10.03262127 8.87890625 15.88671875 C9.15468002 16.69559036 9.4304538 17.50446198 9.71458435 18.33784485 C10.29422275 20.04341788 10.86967812 21.75041764 11.44116211 23.45874023 C12.30503097 26.04018081 13.18157458 28.6170273 14.06054688 31.19335938 C16.60188731 38.68390748 19.03335007 46.14363681 21.00776672 53.80682373 C21.7175112 56.26258659 22.5813455 58.54054004 23.56762695 60.89697266 C25.97611079 66.82886332 28.00339137 72.86561238 30.015625 78.94140625 C30.41271667 80.1331395 30.80980835 81.32487274 31.21893311 82.55271912 C32.05737771 85.0710616 32.89469189 87.5897435 33.72998047 90.10913086 C34.97877065 93.87551369 36.23341158 97.63993499 37.48828125 101.40429688 C42.07893017 115.19687575 46.58613374 129.01320827 50.98876953 142.86694336 C59.43523895 169.39310761 68.62044377 195.70079368 77.734375 222.00390625 C77.96275055 222.66355881 78.1911261 223.32321136 78.42642212 224.00285339 C79.46587808 227.00455344 80.50771916 230.00537917 81.55419922 233.00463867 C83.71788503 239.24010892 85.73403641 245.50292456 87.65576172 251.81689453 C89.61457241 258.18630707 91.6617568 264.52607602 93.73925781 270.85766602 C94.24414701 272.40392969 94.74419623 273.95178258 95.23925781 275.5012207 C97.95127962 283.98122796 100.89903345 292.17953697 104.86328125 300.1640625 C105.18331116 300.81039139 105.50334106 301.45672028 105.83306885 302.12263489 C112.46403869 314.98072605 124.17596173 324.60622603 137.75 329.375 C159.49804261 335.4989785 180.47030775 329.87124556 199.75 319.375 C201.30748421 318.39981845 202.85375707 317.4058036 204.375 316.375 C208.35783652 314.01480058 210.22189936 313.2849017 214.75 314.375 C216.17456055 315.89672852 216.17456055 315.89672852 217.57421875 317.87890625 C218.09242188 318.60311768 218.610625 319.3273291 219.14453125 320.07348633 C219.67433594 320.83298584 220.20414062 321.59248535 220.75 322.375 C221.26433594 323.09647217 221.77867187 323.81794434 222.30859375 324.5612793 C223.86126375 326.74251598 225.40105799 328.93230836 226.9375 331.125 C227.97210554 332.59934494 229.00724445 334.07331577 230.04296875 335.546875 C230.4918042 336.1872168 230.94063965 336.82755859 231.40307617 337.48730469 C232.36336204 338.83313219 233.37445916 340.14329783 234.41723633 341.42626953 C235.75 343.375 235.75 343.375 235.78125 346.3828125 C234.41658671 350.34240372 232.85171992 351.17277044 229.25 353.25 C228.67830078 353.58169189 228.10660156 353.91338379 227.51757812 354.25512695 C211.26885096 363.46982001 194.02867022 370.48759661 175.75 374.375 C174.49352661 374.64425293 174.49352661 374.64425293 173.21166992 374.91894531 C147.81039273 379.98154053 121.90206741 375.78036753 99.75 362.375 C96.64333642 360.16334473 93.68056171 357.81381541 90.75 355.375 C89.37134766 354.23611328 89.37134766 354.23611328 87.96484375 353.07421875 C59.71481094 328.11921549 51.38880768 287.49375503 39.96264648 253.02880859 C38.27658063 247.94854655 36.58252758 242.87096321 34.88818359 237.79345703 C33.46492825 233.51880637 32.05305769 229.24046038 30.64453125 224.9609375 C30.03361036 223.19486925 29.36087726 221.44929749 28.63671875 219.7265625 C27.75 217.375 27.75 217.375 27.75 214.375 C1.68 214.375 -24.39 214.375 -51.25 214.375 C-52.24 217.345 -52.24 217.345 -53.25 220.375 C-54.1929193 222.92567138 -55.14533269 225.47062504 -56.11328125 228.01171875 C-56.38714157 228.73180618 -56.66100189 229.45189362 -56.94316101 230.19380188 C-57.5215433 231.71272147 -58.10064259 233.23136821 -58.68041992 234.74975586 C-59.55275779 237.03695669 -60.42000369 239.32604579 -61.28710938 241.61523438 C-64.00118925 248.7468478 -66.80974114 255.76475534 -70.04125977 262.68139648 C-72.44853983 268.04587254 -74.46142772 273.57280697 -76.5625 279.0625 C-88.58645974 310.04917534 -104.78456902 336.63512005 -136.33935547 350.57470703 C-141.2058814 352.6131011 -146.13347449 354.11113272 -151.25 355.375 C-152.45398438 355.67277344 -153.65796875 355.97054688 -154.8984375 356.27734375 C-162.996457 358.08896255 -171.99900684 360.04943386 -180.25 358.375 C-183.37763745 355.45125396 -184.19921712 353.75771606 -184.76757812 349.47436523 C-184.79380779 347.96099517 -184.7971452 346.44710764 -184.78125 344.93359375 C-184.7850769 344.12890152 -184.78890381 343.32420929 -184.79284668 342.49513245 C-184.79556025 340.79988346 -184.78823792 339.1045922 -184.77148438 337.40942383 C-184.75003658 334.81692212 -184.771317 332.22718241 -184.796875 329.63476562 C-184.79423217 327.9843689 -184.78910812 326.33397389 -184.78125 324.68359375 C-184.78934692 323.91059433 -184.79744385 323.13759491 -184.80578613 322.34117126 C-184.74467574 318.83056931 -184.53788043 316.76572243 -182.42871094 313.90307617 C-179.35235371 311.74542043 -176.71804872 311.60374148 -173 311.25 C-171.64163127 311.09766715 -170.28355002 310.9427471 -168.92578125 310.78515625 C-167.71277344 310.64980469 -166.49976563 310.51445312 -165.25 310.375 C-153.18569585 308.69305743 -141.78224936 301.76389599 -134.25 292.375 C-122.4230233 276.48950287 -116.30554716 256.6508645 -109.25 238.375 C-108.24511462 235.77867325 -107.23947585 233.18264452 -106.23242188 230.5871582 C-105.69265122 229.19454377 -105.15463741 227.80124585 -104.61914062 226.40698242 C-103.18056136 222.681272 -101.67025578 218.99426485 -100.11328125 215.31640625 C-96.40804806 206.46070494 -93.00579568 197.48528627 -89.55300903 188.52896118 C-81.79446492 168.41217419 -73.90812154 148.35237557 -65.85107422 128.35351562 C-63.43747734 122.36014614 -61.04117376 116.35985743 -58.64349365 110.36010742 C-57.88528115 108.46322126 -57.12657983 106.56653146 -56.36767578 104.66992188 C-54.28016434 99.45290103 -52.19350195 94.23555769 -50.11328125 89.015625 C-45.90299983 78.45632319 -41.62750464 67.92463873 -37.33154297 57.39990234 C-33.56054621 48.15483553 -29.83677692 38.89165735 -26.14306641 29.61547852 C-24.82294168 26.30361832 -23.49722715 22.9939995 -22.17163086 19.68432617 C-21.40975705 17.7753025 -20.65681289 15.86271775 -19.90625 13.94921875 C-19.33390625 12.52029297 -19.33390625 12.52029297 -18.75 11.0625 C-18.17765625 9.61423828 -18.17765625 9.61423828 -17.59375 8.13671875 C-13.69950354 0.13313664 -8.64561826 -2.40156063 0 0 Z " fill="#FCFCFC" transform="translate(216.25,140.625)"/>
<path d="M0 0 C10.65351532 -1.0870934 21.45238223 3.99721402 30.88671875 8.51171875 C33.3342953 9.68176475 35.78892978 10.79835092 38.26953125 11.89453125 C50.02205406 17.16445851 60.52952835 23.51887898 71 31 C71.58394531 31.41282227 72.16789062 31.82564453 72.76953125 32.25097656 C79.41587593 36.97400551 85.52470294 42.12055067 91.48828125 47.67578125 C93.5931605 49.6235311 95.73737398 51.47528137 97.9375 53.3125 C136.73069842 87.18713338 161.38660541 143.13176568 164.84326172 193.94726562 C166.30424034 222.40221378 164.28088104 249.46628849 157 277 C156.77376953 277.85835449 156.54753906 278.71670898 156.31445312 279.60107422 C148.58328399 308.41671601 148.58328399 308.41671601 141 316 C135.65769083 316.62287013 132.21548058 314.89134823 127.8125 312.125 C127.16337646 311.72297363 126.51425293 311.32094727 125.84545898 310.90673828 C119.78857178 307.04551922 113.28271977 302.82307428 109 297 C108.64659621 292.04899531 109.3362245 288.08605061 110.828125 283.37890625 C111.21419922 282.12489014 111.60027344 280.87087402 111.99804688 279.57885742 C112.20292725 278.92339935 112.40780762 278.26794128 112.61889648 277.59262085 C116.98179858 263.55812686 120.19849317 249.61253578 122 235 C122.10022461 234.19320801 122.20044922 233.38641602 122.30371094 232.55517578 C124.13950544 216.21921793 124.01694946 199.31595784 120.48730469 183.23242188 C119.97032643 180.86406056 119.50568652 178.48813296 119.0390625 176.109375 C112.47648442 144.37965794 97.2407575 114.54138659 75 91 C73.87037767 89.67058052 72.74520688 88.33736282 71.625 87 C59.87292395 73.60747397 43.57947143 61.27673346 27.36328125 53.78125 C21.47897341 51.05793397 19.46481109 48.12806356 17.0859375 42.125 C16.36419495 40.04804303 15.66089997 37.96458005 14.9765625 35.875 C12.10008925 27.22517974 8.2823823 19.69228021 3.65771484 11.84008789 C3.18672363 11.02531982 2.71573242 10.21055176 2.23046875 9.37109375 C1.80145264 8.64849365 1.37243652 7.92589355 0.93041992 7.18139648 C-0.15228082 4.64297321 -0.17105432 2.73237564 0 0 Z " fill="#FCFCFC" transform="translate(393,68)"/>
<path d="M0 0 C3.17686902 1.30440525 6.09308903 2.96949698 9.0625 4.6875 C25.4180889 13.66631939 43.53497773 20.3587845 62.32421875 21.44921875 C79.25092405 22.49639138 79.25092405 22.49639138 83.3515625 27.02734375 C85.58278051 30.14555212 87.26406096 33.50449469 88.92382812 36.95263672 C90.7358128 40.39984713 93.12233299 43.354415 95.5625 46.375 C96.24953003 47.24040405 96.24953003 47.24040405 96.95043945 48.12329102 C101.68017596 53.99932291 106.69425628 59.79617085 113 64 C113 65.32 113 66.64 113 68 C107.91781982 68.05036465 102.83579257 68.0861626 97.75341797 68.10986328 C96.03334007 68.11976899 94.31327828 68.13329725 92.59326172 68.15087891 C75.76583895 68.31826696 59.68107256 66.98568657 43.25 63.1875 C41.50734863 62.79111328 41.50734863 62.79111328 39.72949219 62.38671875 C31.53899474 60.4741468 23.79498232 58.17940194 16 55 C14.89269531 54.59652344 13.78539062 54.19304687 12.64453125 53.77734375 C4.46761134 50.71880119 -3.2932026 46.97841292 -11.0625 43 C-12.05048584 42.50169678 -13.03847168 42.00339355 -14.05639648 41.48999023 C-19.57767059 38.60725126 -24.16143204 35.97136626 -28 31 C-28.94914638 27.59566375 -28.43447595 25.83598793 -26.82226562 22.73388672 C-25.21134898 20.07360536 -23.50442479 17.50527162 -21.75 14.9375 C-20.87021484 13.61008789 -20.87021484 13.61008789 -19.97265625 12.25585938 C-10.28202831 -2.25830585 -10.28202831 -2.25830585 0 0 Z " fill="#FBFBFB" transform="translate(174,453)"/>
<path d="M0 0 C0.66 0 1.32 0 2 0 C7.40905132 14.09400695 12.18341955 28.38654687 16.91113281 42.71972656 C17.16603989 43.49109955 17.42094696 44.26247253 17.68357849 45.05722046 C18.16480425 46.51442203 18.64459887 47.9720973 19.12269592 49.43032837 C20.05103024 52.24283418 21.00175077 55.00411864 22.16088867 57.73095703 C23 60 23 60 23 64 C7.49 64 -8.02 64 -24 64 C-22.87480136 57.24880815 -22.87480136 57.24880815 -21.52880859 53.71728516 C-21.23114594 52.92850983 -20.93348328 52.1397345 -20.62680054 51.32705688 C-20.30394073 50.48951874 -19.98108093 49.65198059 -19.6484375 48.7890625 C-19.31131744 47.90326508 -18.97419739 47.01746765 -18.62686157 46.10482788 C-17.91165706 44.2294974 -17.19368845 42.35521905 -16.47314453 40.48193359 C-15.39291837 37.67161643 -14.3227034 34.85764926 -13.25390625 32.04296875 C-9.1263214 21.22498513 -4.7641719 10.5534025 0 0 Z " fill="#151E25" transform="translate(206,249)"/>
<path d="M0 0 C7.26 0.66 14.52 1.32 22 2 C22 2.99 22 3.98 22 5 C16.93869207 5.17156976 13.66157326 5.04654436 9 3 C6.01675866 2.25166149 3.01288399 1.61701764 0 1 C0 0.67 0 0.34 0 0 Z " fill="#D9DDD7" transform="translate(232,475)"/>
<path d="M0 0 C-0.66 0 -1.32 0 -2 0 C-2 0.66 -2 1.32 -2 2 C-5.97193147 5.12940055 -9.04230204 5.29162929 -14 5 C-9.94779194 1.59614523 -5.27662976 -1.75887659 0 0 Z " fill="#373C3F" transform="translate(194,110)"/>
<path d="M0 0 C3.26008643 3.16952847 6.22237877 6.39937989 9 10 C6 10 6 10 4.17578125 8.46875 C3.56089844 7.8190625 2.94601562 7.169375 2.3125 6.5 C1.68988281 5.8503125 1.06726563 5.200625 0.42578125 4.53125 C-0.04472656 4.0259375 -0.51523437 3.520625 -1 3 C-0.67 2.01 -0.34 1.02 0 0 Z " fill="#DADFE0" transform="translate(324,101)"/>
<path d="M0 0 C4 6 4 6 4 10 C3.34 10 2.68 10 2 10 C1.67 9.01 1.34 8.02 1 7 C0.01 7 -0.98 7 -2 7 C-1.34 4.69 -0.68 2.38 0 0 Z " fill="#303640" transform="translate(408,303)"/>
<path d="M0 0 C2.33333823 2.12121657 3.9148886 4.01594365 5 7 C4.546875 9.12890625 4.546875 9.12890625 4 11 C3.13341385 9.73760288 2.28207941 8.46472499 1.4375 7.1875 C0.72400391 6.12595703 0.72400391 6.12595703 -0.00390625 5.04296875 C-1 3 -1 3 0 0 Z " fill="#EAEEF1" transform="translate(319,91)"/>
<path d="M0 0 C3.73487777 0.4979837 5.81237635 0.87491756 9 3 C9 3.66 9 4.32 9 5 C6.03 4.01 3.06 3.02 0 2 C0 1.34 0 0.68 0 0 Z " fill="#292C2E" transform="translate(189,460)"/>
<path d="M0 0 C0.66 0 1.32 0 2 0 C2.29296875 6.0546875 2.29296875 6.0546875 2 8 C1.01 8.66 0.02 9.32 -1 10 C-0.67 6.7 -0.34 3.4 0 0 Z " fill="#2C353B" transform="translate(554,323)"/>
<path d="M0 0 C3.48331435 3.01887244 4.79157144 5.56909529 6 10 C2.46413986 6.82679218 0.41421969 4.83256305 0 0 Z " fill="#0C1113" transform="translate(263,488)"/>
<path d="M0 0 C0.66 0.33 1.32 0.66 2 1 C-0.31 3.31 -2.62 5.62 -5 8 C-5 5 -5 5 -2.5 2.3125 C-1.675 1.549375 -0.85 0.78625 0 0 Z " fill="#DBDDE0" transform="translate(206,140)"/>
<path d="M0 0 C0.66 0 1.32 0 2 0 C1.67 2.31 1.34 4.62 1 7 C0.01 7 -0.98 7 -2 7 C-1.34 4.69 -0.68 2.38 0 0 Z " fill="#282D30" transform="translate(148,396)"/>
<path d="M0 0 C0.33 0 0.66 0 1 0 C1.33 2.64 1.66 5.28 2 8 C0.68 8 -0.64 8 -2 8 C-1.47731534 5.23723823 -0.89130413 2.6739124 0 0 Z " fill="#282C30" transform="translate(184,304)"/>
</svg>
